<?xml version="1.0" encoding="UTF-8" standalone="no"?>
<svg
   xmlns:dc="http://purl.org/dc/elements/1.1/"
   xmlns:cc="http://creativecommons.org/ns#"
   xmlns:rdf="http://www.w3.org/1999/02/22-rdf-syntax-ns#"
   xmlns:svg="http://www.w3.org/2000/svg"
   xmlns="http://www.w3.org/2000/svg"
   xml:space="preserve"
   enable-background="new 0 0 30 30"
   viewBox="0 0 30 30"
   height="30px"
   width="30px"
   y="0px"
   x="0px"
   id="Layer_1"
   version="1.1"><metadata
     id="metadata25"><rdf:RDF><cc:Work
         rdf:about=""><dc:format>image/svg+xml</dc:format><dc:type
           rdf:resource="http://purl.org/dc/dcmitype/StillImage" /></cc:Work></rdf:RDF></metadata><defs
     id="defs23" /><path
     id="path3"
     d="M30,15c0,8.285-6.717,15-15,15C6.716,30,0,23.285,0,15C0,6.717,6.716,0,15,0C23.283,0,30,6.717,30,15"
     fill="#F8981D" /><rect
     id="rect5"
     height="0.854"
     width="2.149"
     fill="#FFFFFF"
     y="10.508"
     x="18.256" /><rect
     id="rect7"
     height="0.853"
     width="2.149"
     fill="#FFFFFF"
     y="12.408"
     x="18.256" /><rect
     id="rect9"
     height="0.853"
     width="2.156"
     fill="#FFFFFF"
     y="14.291"
     x="18.256" /><path
     id="path11"
     d="M13.367,22.496H7.2c-0.001-0.059-0.004-0.115-0.004-0.174c0-3.865,0-7.73,0-11.596v-0.162H17.6v0.186  c0,2.438-0.002,4.873,0.002,7.311c0,0.357-0.069,0.699-0.197,1.029c-0.264,0.68-0.676,1.266-1.176,1.789  c-0.617,0.646-1.317,1.176-2.178,1.457C13.83,22.409,13.596,22.444,13.367,22.496 M8.366,21.323h0.162c1.501,0,3.001,0,4.501-0.001  c0.111,0,0.223-0.002,0.332-0.014c0.434-0.047,0.748-0.26,0.87-0.688c0.058-0.201,0.089-0.418,0.082-0.626  c-0.009-0.286-0.065-0.57-0.101-0.857c0.182,0.033,0.373,0.08,0.567,0.102c0.382,0.044,0.765,0.047,1.115-0.145  c0.407-0.221,0.538-0.599,0.54-1.033c0.003-2.064,0-4.129,0-6.193v-0.145H8.366V21.323z"
     fill="#FFFFFF" /><rect
     id="rect13"
     height="0.853"
     width="5.606"
     fill="#FFFFFF"
     y="13.22"
     x="9.586" /><rect
     id="rect15"
     height="0.853"
     width="5.605"
     fill="#FFFFFF"
     y="15.121"
     x="9.588" /><rect
     id="rect17"
     height="0.854"
     width="5.619"
     fill="#FFFFFF"
     y="17.004"
     x="9.59" /><path
     id="path19"
     d="M22.803,7.922V7.736H12.398v0.162c0,0.889,0,0.767,0,1.654h1.17V8.895h8.07v0.145  c0,2.064,0.002,4.129,0,6.193c-0.002,0.435-0.134,0.812-0.541,1.033c-0.351,0.191-0.732,0.188-1.115,0.145  c-0.193-0.022-0.127-0.068-0.309-0.102c0.036,0.287,0.092,0.571,0.102,0.857c0.007,0.208-0.024,0.425-0.082,0.626  c-0.086,0.299-0.266,0.491-0.512,0.598c-0.029,0.24-0.09,0.472-0.178,0.7c-0.078,0.201-0.169,0.393-0.271,0.578h0.097  c0.229-0.053,0.463-0.087,0.685-0.16c0.859-0.281,1.301-0.811,1.918-1.457c0.5-0.523,0.912-1.109,1.176-1.789  c0.127-0.331,0.197-0.672,0.197-1.029C22.801,12.795,22.803,10.359,22.803,7.922"
     fill="#FFFFFF" /></svg>
