<?xml version="1.0" encoding="UTF-8" standalone="no"?>
<svg
   xmlns:dc="http://purl.org/dc/elements/1.1/"
   xmlns:cc="http://creativecommons.org/ns#"
   xmlns:rdf="http://www.w3.org/1999/02/22-rdf-syntax-ns#"
   xmlns:svg="http://www.w3.org/2000/svg"
   xmlns="http://www.w3.org/2000/svg"
   xml:space="preserve"
   enable-background="new 0 0 30 30"
   viewBox="0 0 30 30"
   height="30px"
   width="30px"
   y="0px"
   x="0px"
   id="Layer_1"
   version="1.1"><metadata
     id="metadata21"><rdf:RDF><cc:Work
         rdf:about=""><dc:format>image/svg+xml</dc:format><dc:type
           rdf:resource="http://purl.org/dc/dcmitype/StillImage" /></cc:Work></rdf:RDF></metadata><defs
     id="defs19" /><path
     id="path3"
     d="M30,15c0,8.285-6.717,15-15,15C6.715,30,0,23.285,0,15C0,6.716,6.715,0,15,0C23.284,0,30,6.716,30,15"
     fill="#42A1DA" /><path
     id="path5"
     d="M15.661,8.718c0.248,0,0.449-0.202,0.449-0.45V5.785c0-0.248-0.201-0.45-0.449-0.45  c-0.25,0-0.451,0.202-0.451,0.45v2.483C15.209,8.516,15.411,8.718,15.661,8.718"
     fill="#FFFFFF" /><path
     id="path7"
     d="M20.452,10.352c0.121,0,0.242-0.048,0.33-0.143l1.691-1.816c0.17-0.182,0.16-0.466-0.021-0.636  c-0.182-0.169-0.467-0.16-0.635,0.022l-1.693,1.816c-0.17,0.182-0.16,0.466,0.021,0.636C20.233,10.312,20.342,10.352,20.452,10.352"
     fill="#FFFFFF" /><path
     id="path9"
     d="M25.292,12.206c-0.043-0.245-0.277-0.408-0.521-0.364l-2.443,0.434c-0.246,0.044-0.408,0.278-0.365,0.523  C22,13.017,22.19,13.17,22.405,13.17c0.025,0,0.053-0.002,0.08-0.007l2.443-0.435C25.172,12.685,25.336,12.451,25.292,12.206"
     fill="#FFFFFF" /><path
     id="path11"
     d="M11.424,10.27c0.111,0,0.221-0.04,0.307-0.121c0.184-0.17,0.193-0.454,0.023-0.636l-1.693-1.816  c-0.17-0.182-0.455-0.191-0.637-0.022c-0.182,0.17-0.191,0.454-0.021,0.636l1.693,1.816C11.184,10.222,11.305,10.27,11.424,10.27"
     fill="#FFFFFF" /><path
     id="path13"
     d="M8.977,12.194l-2.443-0.435c-0.246-0.043-0.479,0.12-0.521,0.365c-0.045,0.244,0.119,0.478,0.363,0.522  l2.443,0.435c0.027,0.004,0.053,0.007,0.08,0.007c0.215,0,0.404-0.154,0.443-0.372C9.385,12.472,9.223,12.238,8.977,12.194"
     fill="#FFFFFF" /><path
     id="path15"
     d="M21.874,15.941c0-3.433-2.781-6.215-6.213-6.215c-3.434,0-6.215,2.782-6.215,6.215  c0,3.432,2.781,6.213,6.215,6.213c1.264,0,2.439-0.379,3.422-1.027l2.248,1.908l0.734-2.941l-1.078-0.953  C21.549,18.205,21.874,17.111,21.874,15.941 M15.661,19.658c-2.055,0-3.717-1.664-3.717-3.717c0-2.054,1.662-3.718,3.717-3.718  c2.053,0,3.717,1.664,3.717,3.718C19.377,17.994,17.713,19.658,15.661,19.658"
     fill="#FFFFFF" /></svg>