<?xml version="1.0" encoding="UTF-8" standalone="no"?>
<svg
   xmlns:dc="http://purl.org/dc/elements/1.1/"
   xmlns:cc="http://creativecommons.org/ns#"
   xmlns:rdf="http://www.w3.org/1999/02/22-rdf-syntax-ns#"
   xmlns:svg="http://www.w3.org/2000/svg"
   xmlns="http://www.w3.org/2000/svg"
   xml:space="preserve"
   enable-background="new 0 0 30.001 27.52"
   viewBox="0 0 30.001 27.52"
   height="27.52px"
   width="30.001px"
   y="0px"
   x="0px"
   id="Layer_1"
   version="1.1"><metadata
     id="metadata19"><rdf:RDF><cc:Work
         rdf:about=""><dc:format>image/svg+xml</dc:format><dc:type
           rdf:resource="http://purl.org/dc/dcmitype/StillImage" /></cc:Work></rdf:RDF></metadata><defs
     id="defs17" /><path
     id="path3"
     d="M15.013,5.26c0.387,0,0.701-0.313,0.701-0.7V0.7c0-0.386-0.314-0.7-0.701-0.7  c-0.385,0-0.699,0.314-0.699,0.7v3.86C14.313,4.947,14.628,5.26,15.013,5.26"
     fill="#FFFFFF" /><path
     id="path5"
     d="M22.464,7.799c0.188,0,0.375-0.075,0.512-0.223l2.633-2.822c0.264-0.283,0.248-0.726-0.035-0.99  c-0.283-0.263-0.725-0.248-0.988,0.035l-2.633,2.823c-0.264,0.282-0.248,0.725,0.035,0.989C22.122,7.737,22.294,7.799,22.464,7.799"
     fill="#FFFFFF" /><path
     id="path7"
     d="M29.989,10.683c-0.068-0.381-0.432-0.634-0.812-0.567l-3.799,0.677c-0.381,0.067-0.635,0.431-0.566,0.811  c0.061,0.34,0.355,0.578,0.688,0.578c0.041,0,0.082-0.004,0.125-0.011l3.799-0.676C29.804,11.427,30.058,11.064,29.989,10.683"
     fill="#FFFFFF" /><path
     id="path9"
     d="M8.429,7.672c0.17,0,0.342-0.062,0.477-0.188C9.188,7.22,9.204,6.777,8.94,6.495L6.308,3.672  c-0.264-0.283-0.707-0.298-0.99-0.035c-0.281,0.264-0.297,0.707-0.033,0.99l2.633,2.822C8.054,7.597,8.241,7.672,8.429,7.672"
     fill="#FFFFFF" /><path
     id="path11"
     d="M4.624,10.665L0.823,9.989c-0.381-0.067-0.744,0.186-0.812,0.566c-0.068,0.381,0.186,0.745,0.566,0.812  l3.801,0.676c0.041,0.008,0.084,0.011,0.123,0.011c0.334,0,0.629-0.238,0.689-0.577C5.257,11.096,5.005,10.733,4.624,10.665"
     fill="#FFFFFF" /><path
     id="path13"
     d="M24.675,16.489c0-5.335-4.326-9.662-9.662-9.662s-9.66,4.326-9.66,9.662c0,5.336,4.324,9.662,9.66,9.662  c1.967,0,3.795-0.59,5.32-1.599l3.496,2.968l1.145-4.574l-1.678-1.48C24.171,20.011,24.675,18.309,24.675,16.489 M15.013,22.268  c-3.191,0-5.779-2.588-5.779-5.779s2.588-5.779,5.779-5.779c3.193,0,5.781,2.588,5.781,5.779S18.206,22.268,15.013,22.268"
     fill="#FFFFFF" /></svg>