<?xml version="1.0" encoding="utf-8"?>
<!-- Generator: Adobe Illustrator 18.0.0, SVG Export Plug-In . SVG Version: 6.00 Build 0)  -->
<!DOCTYPE svg PUBLIC "-//W3C//DTD SVG 1.1//EN" "http://www.w3.org/Graphics/SVG/1.1/DTD/svg11.dtd">
<svg version="1.1" id="Layer_1" xmlns="http://www.w3.org/2000/svg" xmlns:xlink="http://www.w3.org/1999/xlink" x="0px" y="0px"
	 viewBox="0 0 19 18.5" enable-background="new 0 0 19 18.5" xml:space="preserve">
<g id="nNxTmf_1_">
	<g>
		<path fill="#FFFFFF" d="M0,18.5c0-0.7,0.2-1.4,0.5-2.1C1,14.9,1.8,13.6,3,12.6c0.5-0.5,1.1-0.9,1.8-1.1c0.1,0,0.2,0,0.3,0
			c0.9,0.6,1.8,1.1,2.9,1.3c0.8,0.2,1.7,0.2,2.5,0.1c1.3-0.1,2.5-0.6,3.6-1.4c0.1-0.1,0.2-0.1,0.3,0c0.9,0.4,1.7,1,2.3,1.7
			c1.1,1.3,1.8,2.8,2.2,4.4c0.1,0.3,0.1,0.5,0.1,0.8C12.7,18.5,6.3,18.5,0,18.5z"/>
		<path fill="#FFFFFF" d="M9.6,0c3-0.1,5.6,2.5,5.6,5.6c0,3-2.5,5.7-5.8,5.6C6.6,11,3.8,8.7,4,5.2C4.1,2.4,6.5-0.1,9.6,0z"/>
	</g>
</g>
</svg>
