<?xml version="1.0" encoding="UTF-8" standalone="no"?>
<svg
   xmlns:dc="http://purl.org/dc/elements/1.1/"
   xmlns:cc="http://creativecommons.org/ns#"
   xmlns:rdf="http://www.w3.org/1999/02/22-rdf-syntax-ns#"
   xmlns:svg="http://www.w3.org/2000/svg"
   xmlns="http://www.w3.org/2000/svg"
   xml:space="preserve"
   enable-background="new 0 0 16 16.001"
   viewBox="0 0 16 16.001"
   height="16.001px"
   width="16px"
   y="0px"
   x="0px"
   id="Layer_1"
   version="1.1"><metadata
     id="metadata9"><rdf:RDF><cc:Work
         rdf:about=""><dc:format>image/svg+xml</dc:format><dc:type
           rdf:resource="http://purl.org/dc/dcmitype/StillImage" /></cc:Work></rdf:RDF></metadata><defs
     id="defs7" /><path
     id="path3"
     d="M11.437,10.063h-0.728l-0.252-0.252c0.893-1.04,1.435-2.388,1.435-3.866C11.892,2.662,9.23,0,5.946,0  C2.662,0,0,2.662,0,5.946s2.662,5.948,5.946,5.948c1.477,0,2.825-0.543,3.865-1.435l0.252,0.252v0.724l4.572,4.566L16,14.637  L11.437,10.063z M5.946,10.063c-2.274,0-4.117-1.844-4.117-4.118c0-2.273,1.843-4.116,4.117-4.116c2.274,0,4.117,1.843,4.117,4.116  C10.063,8.22,8.22,10.063,5.946,10.063"
     fill="#FFFFFF" /></svg>