<?xml version="1.0" encoding="UTF-8" standalone="no"?>
<svg
   xmlns:dc="http://purl.org/dc/elements/1.1/"
   xmlns:cc="http://creativecommons.org/ns#"
   xmlns:rdf="http://www.w3.org/1999/02/22-rdf-syntax-ns#"
   xmlns:svg="http://www.w3.org/2000/svg"
   xmlns="http://www.w3.org/2000/svg"
   xml:space="preserve"
   enable-background="new 0 0 30 30"
   viewBox="0 0 30 30"
   height="30px"
   width="30px"
   y="0px"
   x="0px"
   id="Layer_1"
   version="1.1"><metadata
     id="metadata17"><rdf:RDF><cc:Work
         rdf:about=""><dc:format>image/svg+xml</dc:format><dc:type
           rdf:resource="http://purl.org/dc/dcmitype/StillImage" /></cc:Work></rdf:RDF></metadata><defs
     id="defs15" /><path
     id="path3"
     d="M30,15c0,8.286-6.715,15-15,15C6.716,30,0,23.286,0,15C0,6.716,6.716,0,15,0C23.285,0,30,6.716,30,15"
     fill="#A65EA5" /><path
     id="path5"
     d="M9.303,8.136H21.29c0.001,0.083,0.005,0.167,0.005,0.25c0,2.804-0.002,5.609,0.002,8.414  c0.002,0.418-0.07,0.82-0.23,1.203c-0.631,1.504-1.693,2.619-3.104,3.414c-0.605,0.34-1.258,0.502-1.963,0.498  c-2.158-0.015-4.317-0.006-6.476-0.006H9.297v-0.236c0-4.434,0-8.869,0.001-13.303C9.298,8.291,9.301,8.214,9.303,8.136   M10.644,20.573h0.196c1.73,0,3.46,0,5.19-0.001c0.128,0,0.256-0.002,0.383-0.017c0.499-0.057,0.86-0.305,1-0.799  c0.065-0.226,0.103-0.471,0.095-0.705c-0.013-0.334-0.076-0.666-0.119-1.008c0.041,0.01,0.088,0.025,0.137,0.031  c0.363,0.038,0.728,0.113,1.09,0.106c0.859-0.019,1.339-0.534,1.339-1.392c0-2.371,0-4.741,0-7.111V9.503h-9.31V20.573z"
     fill="#FFFFFF" /><rect
     id="rect7"
     height="0.992"
     width="6.469"
     fill="#FFFFFF"
     y="11.223"
     x="12.056" /><rect
     id="rect9"
     height="0.989"
     width="6.468"
     fill="#FFFFFF"
     y="13.415"
     x="12.057" /><rect
     id="rect11"
     height="0.984"
     width="6.479"
     fill="#FFFFFF"
     y="15.594"
     x="12.055" /></svg>