<?xml version="1.0" encoding="utf-8"?>
<!-- Generator: Adobe Illustrator 18.0.0, SVG Export Plug-In . SVG Version: 6.00 Build 0)  -->
<!DOCTYPE svg PUBLIC "-//W3C//DTD SVG 1.1//EN" "http://www.w3.org/Graphics/SVG/1.1/DTD/svg11.dtd">
<svg version="1.1" id="Layer_1" xmlns="http://www.w3.org/2000/svg" xmlns:xlink="http://www.w3.org/1999/xlink" x="0px" y="0px"
	 viewBox="0 0 18 15.9" enable-background="new 0 0 18 15.9" xml:space="preserve">
<g>
	<g>
		<path fill="#EF4882" d="M9,0.9c0.8,0,1.5,0.3,1.8,0.5c0.5,0.3,0.8,0.6,1.1,1.1c0.3,0.5,0.5,1,0.5,1.7c0,0.3,0,0.6-0.1,0.9
			c-0.1,0.2-0.2,0.4-0.3,0.6c0,0.1-0.1,0.2-0.1,0.2c-0.3,0.6-0.6,1.1-1,1.6c-0.7,1-1.3,2.1-1.9,3.3c-0.2-0.5-0.5-1-0.8-1.5
			c-0.3-0.6-0.7-1.1-1-1.7C7,7.3,6.8,7,6.6,6.7C6.5,6.5,6.4,6.4,6.3,6.2C6.3,6.1,6.2,6,6.1,5.8C5.8,5.2,5.6,4.7,5.6,4.1
			c0-0.6,0.2-1.2,0.5-1.7c0.3-0.5,1-1.3,2.3-1.5C8.6,0.9,8.8,0.9,9,0.9 M9,6.5c1.3,0,2.4-1.1,2.4-2.4S10.3,1.7,9,1.7
			S6.6,2.8,6.6,4.1S7.7,6.5,9,6.5 M9,0c-0.2,0-0.4,0-0.6,0C7,0.3,6,1,5.4,2C5,2.5,4.8,3.2,4.8,4.1C4.7,5,5,5.7,5.4,6.3
			c0.2,0.3,0.3,0.6,0.5,0.9C6.4,8,7,8.8,7.5,9.7c0.7,1.2,1.2,2.5,1.5,4c0.5-2.3,1.5-4,2.6-5.7c0.4-0.6,0.7-1.1,1-1.7
			c0.2-0.3,0.3-0.6,0.4-1c0.1-0.3,0.2-0.8,0.2-1.2c0-0.9-0.3-1.6-0.6-2.1c-0.4-0.5-0.8-1-1.4-1.4C10.6,0.3,9.8,0,9,0L9,0z M9,5.6
			c-0.8,0-1.5-0.7-1.5-1.5S8.2,2.6,9,2.6c0.8,0,1.5,0.7,1.5,1.5S9.8,5.6,9,5.6L9,5.6z"/>
	</g>
	<path fill="#EF4882" d="M12.3,10.3l-0.1,0v0.8l0.1,0c3.2,0.4,5,1.3,5,1.9c0,0.9-3.1,2.1-8.2,2.1c-5.1,0-8.2-1.2-8.2-2.1
		c0-0.6,1.7-1.5,5-1.9l0.1,0v-0.8l-0.1,0C4.4,10.4,0,11.1,0,13c0,1.9,4.5,2.9,9,2.9s9-1,9-2.9C18,11.1,13.6,10.4,12.3,10.3z"/>
</g>
</svg>
