<?xml version="1.0" encoding="utf-8"?>
<!-- Generator: Adobe Illustrator 18.0.0, SVG Export Plug-In . SVG Version: 6.00 Build 0)  -->
<!DOCTYPE svg PUBLIC "-//W3C//DTD SVG 1.1//EN" "http://www.w3.org/Graphics/SVG/1.1/DTD/svg11.dtd">
<svg version="1.1" id="Layer_1" xmlns="http://www.w3.org/2000/svg" xmlns:xlink="http://www.w3.org/1999/xlink" x="0px" y="0px"
	 viewBox="0 0 49.2 49.2" enable-background="new 0 0 49.2 49.2" xml:space="preserve">
<g id="pplKXo_2_">
	<g>
		<path fill="#FFFFFF" d="M17.6,28.9c-0.2-0.1-0.2-0.2-0.3-0.3c-2.4-1.2-3.8-4-2.5-7c1-2.3,3.2-3.5,5.7-3.2c1.7,0.2,3,1.1,4,2.5
			c0.3,0.4,0.6,0.4,0.9,0c0.7-1.1,1.8-1.9,3-2.3c2.5-0.8,5.4,0.5,6.5,2.9c1,2,0.5,4.7-1,6.2c-0.4,0.4-0.8,0.6-1.2,0.9
			c-0.1,0.1-0.2,0.2-0.4,0.3c0.2,0.1,0.3,0.2,0.4,0.2c2.3,0.8,3.8,2.4,4.7,4.7c0.4,1.1,0.5,2.2,0.7,3.4c0,0.5-0.2,0.8-0.7,0.8
			c-1.3,0-2.5,0-3.8,0c-0.6,0-0.6,0-0.6,0.6c0,0.4,0.1,0.9,0.1,1.4c0,0.6-0.2,0.8-0.8,0.8c-3.6,0-7.2,0-10.8,0c-1.2,0-2.3,0-3.5,0
			c-0.6,0-0.8-0.2-0.8-0.8c0-0.5,0.1-1,0.2-1.5c0.1-0.4,0-0.5-0.4-0.5c-1.4,0-2.8,0-4.1,0c-0.6,0-0.8-0.2-0.8-0.8
			c0.1-2.3,0.8-4.4,2.4-6.1c0.8-0.9,1.8-1.5,2.9-1.9C17.2,29,17.4,29,17.6,28.9z M24.9,39.6C24.9,39.6,24.9,39.6,24.9,39.6
			c2.1,0,4.2,0,6.3,0c0.5,0,0.6-0.1,0.5-0.6c-0.2-0.9-0.4-1.9-0.8-2.7c-1.7-3.5-5.7-4.7-8.9-3.1c-2.4,1.2-3.5,3.3-3.8,5.8
			c-0.1,0.5,0,0.6,0.5,0.6C20.8,39.6,22.9,39.6,24.9,39.6z M25,30.9c2.5,0,4.4-1.9,4.4-4.4c0-2.1-1.7-4.3-4.4-4.3
			c-2.4,0-4.3,1.9-4.3,4.4C20.6,28.8,22.4,31,25,30.9z M15.3,36.8C15.3,36.8,15.3,36.8,15.3,36.8c0.6,0,1.2,0,1.8,0
			c0.3,0,0.5-0.1,0.6-0.4c0.3-0.6,0.6-1.3,1.1-1.9c0.9-1.2,2.1-2.1,3.6-2.7c0.1,0,0.2-0.1,0.3-0.2c-0.1-0.1-0.2-0.2-0.2-0.3
			c-0.5-0.4-1.1-0.9-1.6-1.3c-0.2-0.2-0.4-0.4-0.7-0.4c-2.2,0-4,0.8-5.4,2.5c-1,1.2-1.5,2.6-1.7,4.2c0,0.4,0.1,0.5,0.4,0.4
			C14,36.8,14.6,36.8,15.3,36.8z M15.4,23.7c0,2.2,1.5,4,3.7,4.4c0.5,0.1,0.6,0,0.5-0.5c-0.4-2.5,0.8-4.8,3-5.9
			c0.8-0.4,0.8-0.4,0.1-1.1c-1.2-1.2-3.1-1.5-4.5-0.9C16.4,20.5,15.5,22.1,15.4,23.7z M34.5,36.8C34.5,36.8,34.5,36.8,34.5,36.8
			c0.6,0,1.1,0,1.7,0c0.5,0,0.5-0.1,0.5-0.5c-0.1-1.1-0.4-2.1-1-3.1c-1.3-2.3-3.2-3.4-5.8-3.5c-0.3,0-0.6,0.1-0.8,0.4
			c-0.4,0.6-1,1-1.6,1.3c-0.1,0.1-0.2,0.2-0.3,0.3c0.1,0.1,0.2,0.2,0.3,0.2c0.5,0.2,1,0.4,1.5,0.7c1.4,0.9,2.4,2,3,3.5
			c0.3,0.6,0.3,0.6,0.9,0.6C33.5,36.8,34,36.8,34.5,36.8z M26.4,21.2c0.3,0.1,0.4,0.2,0.6,0.3c2.2,0.9,3.6,2.9,3.5,5.3
			c0,0.3-0.1,0.6-0.1,1c0,0.3,0.1,0.4,0.4,0.3c1.7-0.4,2.9-1.4,3.5-3.1c0.6-1.9-0.3-3.9-1.9-5c-1.7-1-3.9-0.8-5.3,0.6
			C26.7,20.8,26.6,21,26.4,21.2z"/>
	</g>
</g>
</svg>
