<?xml version="1.0" encoding="utf-8"?>
<!-- Generator: Adobe Illustrator 18.0.0, SVG Export Plug-In . SVG Version: 6.00 Build 0)  -->
<!DOCTYPE svg PUBLIC "-//W3C//DTD SVG 1.1//EN" "http://www.w3.org/Graphics/SVG/1.1/DTD/svg11.dtd">
<svg version="1.1" id="Layer_1" xmlns="http://www.w3.org/2000/svg" xmlns:xlink="http://www.w3.org/1999/xlink" x="0px" y="0px"
	 viewBox="0 0 16 20" enable-background="new 0 0 16 20" xml:space="preserve">
<path fill-rule="evenodd" clip-rule="evenodd" fill="#FFFFFF" d="M0.1,15c-0.2-0.6,0-0.9,0.5-1.2c0.9-0.6,1.4-1.5,1.4-2.6
	c0.1-1.5,0-3,0.2-4.5C2.4,4.1,3.4,2.2,6,1.3C6.2,1.2,6.4,1,6.6,0.9c1-1.2,2-1.1,2.9,0.1c0.1,0.2,0.4,0.4,0.6,0.4
	c2.5,0.7,3.6,2.9,3.8,5.1c0.2,1.5,0.1,3,0.2,4.5c0,1.3,0.6,2.3,1.7,3c0.2,0.2,0.3,0.5,0.3,0.8c0,0.1-0.3,0.3-0.5,0.3
	c-5.1,0-10.1,0-15.2,0C0.3,15,0.2,15,0.1,15z"/>
<path fill-rule="evenodd" clip-rule="evenodd" fill="#FFFFFF" d="M10.9,16c0.1,1.5-1.2,2.9-2.7,2.9C6.6,19.1,5,17.7,5.1,16"/>
</svg>
