<?xml version="1.0" encoding="utf-8"?>
<!-- Generator: Adobe Illustrator 18.0.0, SVG Export Plug-In . SVG Version: 6.00 Build 0)  -->
<!DOCTYPE svg PUBLIC "-//W3C//DTD SVG 1.1//EN" "http://www.w3.org/Graphics/SVG/1.1/DTD/svg11.dtd">
<svg version="1.1" id="Layer_1" xmlns="http://www.w3.org/2000/svg" xmlns:xlink="http://www.w3.org/1999/xlink" x="0px" y="0px"
	 viewBox="0 0 17 23.2" enable-background="new 0 0 17 23.2" xml:space="preserve">
<g>
	<path fill="#32B5CB" d="M6.5,23c0-1.2,0-2.3,0-3.5c-1.3,0-2.4-0.3-3.4-0.9C0.9,17.1-0.2,15,0,12.4C0.2,10,1.4,8.1,3.6,7.1
		c3.8-1.9,8.5,0,9.4,4.4c0.5,2.2,0,4.4-1.1,6.5c-0.9,1.7-1.8,3.4-3.5,4.4c-0.5,0.3-1.1,0.5-1.6,0.8C6.7,23.1,6.6,23,6.5,23z"/>
	<g>
		<path fill="#ED1C24" d="M10.3,12.6C6.8,12.6,4,9.8,4,6.3s2.8-6.3,6.3-6.3s6.3,2.8,6.3,6.3S13.7,12.6,10.3,12.6z"/>
		<path fill="#FFFFFF" d="M10.3,0.8c3,0,5.5,2.5,5.5,5.5s-2.5,5.5-5.5,5.5S4.8,9.4,4.8,6.3S7.2,0.8,10.3,0.8 M10.3-0.7
			c-3.9,0-7,3.1-7,7s3.1,7,7,7s7-3.1,7-7S14.1-0.7,10.3-0.7L10.3-0.7z"/>
	</g>
	<text transform="matrix(1 0 0 1 7.7114 7.9227)" fill="#FFFFFF" font-family="'Roboto-Bold'" font-size="5.28">35</text>
</g>
</svg>
