<?xml version="1.0" encoding="UTF-8" standalone="no"?>
<svg
   xmlns:dc="http://purl.org/dc/elements/1.1/"
   xmlns:cc="http://creativecommons.org/ns#"
   xmlns:rdf="http://www.w3.org/1999/02/22-rdf-syntax-ns#"
   xmlns:svg="http://www.w3.org/2000/svg"
   xmlns="http://www.w3.org/2000/svg"
   xml:space="preserve"
   enable-background="new 0 0 30 30"
   viewBox="0 0 30 30"
   height="30px"
   width="30px"
   y="0px"
   x="0px"
   id="Layer_1"
   version="1.1"><metadata
     id="metadata19"><rdf:RDF><cc:Work
         rdf:about=""><dc:format>image/svg+xml</dc:format><dc:type
           rdf:resource="http://purl.org/dc/dcmitype/StillImage" /></cc:Work></rdf:RDF></metadata><defs
     id="defs17" /><path
     id="path3"
     d="M30,15c0,8.285-6.717,15-15,15C6.716,30,0,23.285,0,15C0,6.717,6.716,0,15,0C23.284,0,30,6.717,30,15"
     fill="#C3BA38" /><path
     id="path5"
     d="M16.328,21.966c-1.47,0-2.94,0.004-4.41-0.004c-0.156,0-0.359-0.008-0.457-0.102  c-0.138-0.131-0.279-0.348-0.27-0.52c0.009-0.164,0.18-0.358,0.332-0.465c0.128-0.09,0.331-0.101,0.501-0.101  c2.852,0,5.705-0.006,8.556,0.019c0.971,0.01,1.427-0.694,1.425-1.447c-0.007-2.367-0.009-4.734,0.003-7.1  c0.002-0.353-0.092-0.489-0.465-0.477c-0.848,0.026-1.695-0.008-2.541,0.017c-0.791,0.023-1.415-0.304-1.861-0.91  c-0.312-0.422-0.649-0.59-1.162-0.541c-0.47,0.045-0.946,0.021-1.419,0.027c-0.05,0-0.115,0.023-0.147,0  c-0.149-0.108-0.289-0.229-0.432-0.345c0.146-0.111,0.288-0.23,0.442-0.33c0.042-0.027,0.121,0.005,0.184,0.005  c0.548,0.004,1.096,0.001,1.644,0.014c0.255,0.006,0.362-0.093,0.36-0.35c-0.002-0.255-0.084-0.408-0.364-0.404  c-0.535,0.008-1.071,0.014-1.606,0.018c-0.099,0.001-0.224,0.033-0.293-0.015c-0.137-0.093-0.245-0.232-0.364-0.352  c0.136-0.079,0.269-0.219,0.408-0.225c0.584-0.026,1.171-0.022,1.756-0.008c0.332,0.007,0.478-0.107,0.451-0.459  c-0.024-0.334-0.019-0.672,0.004-1.007c0.019-0.255-0.096-0.338-0.322-0.338c-1.719,0.004-3.438-0.005-5.156,0.017  c-0.678,0.009-1.127,0.564-1.126,1.307c0.003,2.179,0.008,4.359,0.01,6.539c0,0.149,0.032,0.334-0.041,0.438  c-0.127,0.181-0.304,0.376-0.5,0.439c-0.111,0.036-0.34-0.154-0.446-0.295c-0.095-0.125-0.13-0.323-0.131-0.489  c-0.008-2.279-0.009-4.559-0.004-6.838c0.002-1.136,0.954-2.325,2.296-2.323c2.018,0.002,4.036-0.01,6.053,0.005  c0.188,0.001,0.422,0.103,0.557,0.237c1.65,1.625,3.285,3.268,4.93,4.898c0.284,0.282,0.398,0.583,0.396,0.994  c-0.019,2.329,0.002,4.658-0.005,6.988c-0.002,0.544,0.007,1.1-0.1,1.629c-0.24,1.186-1.123,1.85-2.351,1.852  C19.217,21.966,17.773,21.966,16.328,21.966L16.328,21.966z"
     fill="#FFFFFF" /><path
     id="path7"
     d="M9.315,19.021c0.22-0.507,0.399-0.909,0.57-1.313c0.352-0.834,0.701-1.668,1.049-2.503  c0.109-0.263,0.208-0.531,0.321-0.792c0.198-0.459,0.663-0.648,1.147-0.472c0.411,0.148,0.673,0.656,0.509,1.079  c-0.412,1.063-0.848,2.117-1.276,3.173c-0.339,0.838-0.676,1.678-1.024,2.51c-0.124,0.295-0.248,0.599-0.426,0.861  C9.791,22.146,9.01,22.1,8.657,21.499c-0.453-0.771-0.914-1.536-1.368-2.307c-0.317-0.541-0.186-1.072,0.325-1.343  c0.44-0.231,0.993-0.032,1.267,0.453C9.004,18.519,9.138,18.729,9.315,19.021"
     fill="#FFFFFF" /><path
     id="path9"
     d="M17.433,16.702c-0.994,0-1.99,0.014-2.982-0.014c-0.165-0.006-0.324-0.195-0.486-0.299  c0.144-0.133,0.271-0.3,0.439-0.385c0.118-0.061,0.293-0.007,0.442-0.007c1.827-0.003,3.655-0.005,5.482-0.005  c0.087,0,0.204-0.023,0.253,0.021c0.126,0.115,0.22,0.264,0.327,0.399c-0.127,0.093-0.25,0.261-0.381,0.267  c-0.607,0.029-1.217,0.014-1.826,0.014c-0.424,0-0.846,0-1.268,0V16.702z"
     fill="#FFFFFF" /><path
     id="path11"
     d="M17.481,14.66c0.97,0,1.941,0.001,2.911,0c0.248-0.001,0.52,0.002,0.504,0.338  c-0.014,0.31-0.277,0.343-0.527,0.343c-1.791-0.001-3.582-0.004-5.375-0.006c-0.162,0-0.324,0.003-0.485,0.008  c-0.265,0.008-0.515-0.088-0.515-0.36c0-0.262,0.253-0.327,0.501-0.326C15.49,14.661,16.486,14.659,17.481,14.66L17.481,14.66z"
     fill="#FFFFFF" /><path
     id="path13"
     d="M12.124,8.367c1.046,0.008,0.967-0.143,0.957,0.946c-0.002,0.174,0.007,0.347,0.007,0.521  c0,0.331-0.2,0.537-0.522,0.538c-0.31,0.001-0.62-0.002-0.929,0c-0.434,0.003-0.613-0.174-0.607-0.6  c0.005-0.298,0.005-0.595,0.006-0.893c0.001-0.433,0.083-0.513,0.529-0.512C11.75,8.367,11.938,8.367,12.124,8.367 M12.469,9.259  c-0.122-0.107-0.231-0.282-0.368-0.307c-0.231-0.042-0.385,0.087-0.384,0.366c0,0.259,0.093,0.386,0.36,0.398  C12.361,9.729,12.407,9.564,12.469,9.259"
     fill="#FFFFFF" /></svg>